<?xml version="1.0" encoding="UTF-8"?><svg id="Calque_2" xmlns="http://www.w3.org/2000/svg" viewBox="0 0 351.53 351.53"><defs><style>.cls-1{fill:#202228;stroke-width:0px;}</style></defs><g id="Icons"><path class="cls-1" d="m230.15,90.74h-108.77c-19.45,0-35.27,15.82-35.27,35.27v99.51c0,19.45,15.82,35.27,35.27,35.27h108.77c19.45,0,35.27-15.82,35.27-35.27v-99.51c0-19.45-15.82-35.27-35.27-35.27Zm-54.39,135.71c-27.95,0-50.69-22.74-50.69-50.69s22.74-50.69,50.69-50.69,50.69,22.74,50.69,50.69-22.74,50.69-50.69,50.69Zm55.39-93.2c-7.53,0-13.66-6.13-13.66-13.66s6.13-13.66,13.66-13.66,13.66,6.13,13.66,13.66-6.13,13.66-13.66,13.66Z"/><path class="cls-1" d="m176.27,0h-1C78.47,0,0,78.47,0,175.27v1c0,96.8,78.47,175.27,175.27,175.27h1c96.8,0,175.27-78.47,175.27-175.27v-1C351.53,78.47,273.06,0,176.27,0Zm108.38,225.52c0,30.05-24.44,54.49-54.49,54.49h-108.77c-30.05,0-54.49-24.44-54.49-54.49v-99.51c0-30.05,24.44-54.49,54.49-54.49h108.77c30.05,0,54.49,24.44,54.49,54.49v99.51Z"/><circle class="cls-1" cx="175.77" cy="175.77" r="31.46" transform="translate(-18.76 21.02) rotate(-6.5)"/></g></svg>