<?xml version="1.0" encoding="UTF-8"?><svg id="Calque_2" xmlns="http://www.w3.org/2000/svg" viewBox="0 0 351.53 351.53"><defs><style>.cls-1{fill:#202228;stroke-width:0px;}</style></defs><g id="Icons"><path class="cls-1" d="m176.27,0h-1C78.47,0,0,78.47,0,175.27v1c0,96.8,78.47,175.27,175.27,175.27h1c96.8,0,175.27-78.47,175.27-175.27v-1C351.53,78.47,273.06,0,176.27,0Zm89.09,266.35c-17.43,0-34.86,0-52.28.01-.53,0-.85-.16-1.16-.6-15.26-21.76-30.52-43.52-45.79-65.28-.16-.22-.32-.44-.53-.73-.74.83-1.45,1.62-2.15,2.42-15.25,17.34-30.5,34.69-45.75,52.03-3.41,3.88-6.82,7.77-10.25,11.64-.22.25-.6.48-.91.48-4.99.03-9.99.02-14.98.02-.1,0-.2-.02-.39-.04.14-.19.23-.35.35-.49,16.63-18.93,33.25-37.85,49.88-56.77,5.52-6.28,11.04-12.57,16.57-18.84.42-.47.4-.76.05-1.25-24.14-34.37-48.26-68.76-72.38-103.14-.14-.2-.25-.42-.37-.64h53.93c.11.19.2.4.33.58,16.15,23.02,32.31,46.04,48.47,69.06.15.21.31.42.48.66.17-.18.28-.29.37-.4,4.35-4.95,8.7-9.9,13.05-14.85,13.58-15.45,27.16-30.91,40.73-46.37,2.54-2.89,5.05-5.79,7.58-8.69h16.03c-17.06,19.41-34.12,38.82-51.17,58.23-6.31,7.18-12.62,14.37-18.95,21.54-.46.51-.46.82-.07,1.38,23.14,32.94,46.26,65.89,69.39,98.84.24.34.48.69.83,1.19h-.91Z"/><path class="cls-1" d="m132.04,97c-.34-.48-.7-.66-1.28-.66-7.59.02-15.18.01-22.77.01h-.93c.26.39.43.65.62.91,37.28,52.22,74.57,104.44,111.85,156.66.34.48.7.66,1.29.66,7.59-.02,15.18-.01,22.77-.01h.93c-.22-.33-.34-.54-.48-.73-37.33-52.28-74.66-104.55-111.98-156.84Z"/></g></svg>