<?xml version="1.0" encoding="UTF-8"?><svg id="Calque_2" xmlns="http://www.w3.org/2000/svg" viewBox="0 0 351.53 351.53"><defs><style>.cls-1{fill:#202228;stroke-width:0px;}</style></defs><g id="Icons"><path class="cls-1" d="m176.27,0h-1C78.47,0,0,78.47,0,175.27v1c0,96.8,78.47,175.27,175.27,175.27h1c96.8,0,175.27-78.47,175.27-175.27v-1C351.53,78.47,273.06,0,176.27,0Zm-53.85,273.28h-41.63v-131.77h41.63v131.77Zm-3.04-156.43c-4.63,4.3-10.51,6.45-17.65,6.45s-13.27-2.15-17.89-6.45c-4.63-4.3-6.94-9.62-6.94-15.95s2.31-11.89,6.94-16.19c4.63-4.3,10.59-6.45,17.89-6.45s13.03,2.15,17.65,6.45c4.63,4.3,6.94,9.7,6.94,16.19s-2.31,11.65-6.94,15.95Zm155.26,154.11h-39.55v-70.49c0-8.68-2.25-15.43-6.75-20.24-4.5-4.81-10.55-7.21-18.15-7.21s-13.65,2.41-18.15,7.21c-4.5,4.81-6.75,11.56-6.75,20.24v70.49h-39.78v-129.82h39.78v17.22c4.03-5.74,9.46-10.27,16.29-13.61,6.82-3.33,14.5-5,23.03-5,15.2,0,27.34,4.93,36.41,14.77,9.07,9.85,13.61,23.38,13.61,40.6v75.84Z"/></g></svg>