<?xml version="1.0" encoding="UTF-8"?><svg id="Calque_2" xmlns="http://www.w3.org/2000/svg" viewBox="0 0 1565.2 291.91"><defs><style>.cls-1{fill:#f2f2f2;stroke-width:0px;}</style></defs><g id="Calque_1-2"><g id="Calque_1-2"><polygon class="cls-1" points="585.79 50.54 496.36 285.93 532.67 285.93 558.76 216.51 570.83 185.05 601.06 95 601.67 95 631.59 185.05 643.35 216.51 669.44 285.93 706.06 285.93 616.63 50.54 585.79 50.54"/><polygon class="cls-1" points="225.8 224.25 181.54 180.41 138.12 180.41 250.65 291.81 292.95 291.81 233.63 232.5 225.8 224.25"/><path class="cls-1" d="M447.05,208.88c0,43.63-31.77,49.92-44.56,49.92s-44.56-6.4-44.56-49.92V50.54h-34.35v159.37c0,26.72,8.87,46.11,23.83,60.45,14.65,12.07,33.42,20.01,54.98,20.01s40.43-7.94,54.98-20.01c14.96-14.34,23.83-33.73,23.83-60.45V50.54h-34.35v158.44l.21-.1Z"/><path class="cls-1" d="M1233.78,208.88c0,43.63-31.77,49.92-44.56,49.92s-44.56-6.4-44.56-49.92V50.54h-34.35v159.37c0,26.72,8.87,46.11,23.83,60.45,14.65,12.07,33.42,20.01,54.98,20.01s40.43-7.94,54.98-20.01c14.96-14.34,23.83-33.73,23.83-60.45V50.54h-34.35v158.44l.21-.1Z"/><polygon class="cls-1" points="886.37 229.61 885.75 229.61 771.15 50.54 733.71 50.54 733.71 285.93 768.06 285.93 768.06 103.98 768.67 103.98 885.03 285.93 920.72 285.93 920.72 50.54 886.37 50.54 886.37 229.61"/><polygon class="cls-1" points="1511.15 50.54 1440.18 230.85 1369.52 50.54 1315.47 50.54 1315.47 285.93 1349.82 285.93 1349.82 87.06 1350.44 87.06 1429.97 285.93 1450.7 285.93 1529.92 87.06 1530.85 87.06 1530.85 285.93 1565.2 285.93 1565.2 50.54 1511.15 50.54"/><polygon class="cls-1" points="954.04 50.54 946.4 50.54 946.4 82 954.04 82 999.21 82 999.21 285.93 1033.56 285.93 1033.56 82 1078.74 82 1086.38 82 1086.38 50.54 1078.74 50.54 954.04 50.54"/><path class="cls-1" d="M146.68,0C66.43,0,0,65.71,0,145.96s65.71,145.96,146.68,145.96c22.8,0,47.96-6.6,69.21-18.36l-24.86-24.55c-14.65,6.7-30.84,10.32-44.35,10.32-60.55,0-111.71-49.41-111.71-113.26s46-113.36,111.71-113.36,111.71,51.58,111.71,113.26c0,23.21-8.46,50.54-24.86,70.04l24.03,24.55c22.49-25.37,35.59-59,35.59-94.59C293.36,65.71,226.83,0,146.68,0Z"/></g></g></svg>