<?xml version="1.0" encoding="UTF-8"?><svg id="Calque_2" xmlns="http://www.w3.org/2000/svg" viewBox="0 0 811.67 808.24"><defs><style>.cls-1{fill:#d2c8be;stroke-width:0px;}</style></defs><g id="Calque_1-2"><g id="Calque_1-2"><polygon class="cls-1" points="625.17 620.89 502.65 499.51 382.41 499.51 694 807.95 811.09 807.95 646.88 643.73 625.17 620.89"/><path class="cls-1" d="M406.12,0C183.92,0,0,181.92,0,404.12s181.92,404.12,406.12,404.12c63.12,0,132.8-18.28,191.63-50.84l-68.83-67.97c-40.55,18.56-85.39,28.56-122.81,28.56-167.64,0-309.3-136.8-309.3-313.58S224.19,90.53,406.12,90.53s309.3,142.8,309.3,313.58c0,64.26-23.42,139.94-68.83,193.92l66.54,67.97c62.26-70.26,98.53-163.36,98.53-261.89C812.24,181.92,628.03,0,406.12,0Z"/></g></g></svg>